<svg xmlns="http://www.w3.org/2000/svg" width="204" height="50" fill="none" viewBox="0 0 204 50">
    <rect width="204" height="50" fill="#0A0F26" rx="5"/>
    <circle cx="25" cy="25" r="15" fill="#EB5757"/>
    <g fill="#fff" clip-path="url(#clip0)">
        <path d="M20.616 25.314c-.194-.194-.452-.3-.726-.3-.273 0-.53.106-.724.3-.194.194-.3.451-.3.725 0 .274.106.531.3.725.193.194.45.3.724.3.274 0 .532-.106.726-.3.193-.194.3-.451.3-.725 0-.274-.107-.531-.3-.725zM20.2 26.35c-.083.083-.193.128-.31.128-.118 0-.228-.045-.311-.128-.083-.083-.129-.194-.129-.31 0-.118.046-.229.129-.312.083-.083.193-.128.31-.128.118 0 .228.045.311.128.083.083.129.194.129.311 0 .117-.046.228-.129.31z"/>
        <path d="M32.413 21.41c-.076-.075-.188-.103-.29-.072L27.19 22.81l1.472-4.933c.03-.103.003-.214-.072-.29-.075-.076-.185-.105-.288-.076l-1.28.362c-.083.024-.151.083-.187.162l-2.546 5.64-2.598.776c-.604-.719-1.58-1.017-2.495-.744-1.255.374-1.97 1.7-1.596 2.954.307 1.03 1.253 1.696 2.276 1.696.225 0 .453-.032.678-.1.878-.26 1.516-.997 1.664-1.881l1.28.125.126 1.28c-.884.149-1.62.787-1.882 1.664-.375 1.255.342 2.58 1.596 2.955.222.066.45.1.68.1.501 0 1-.164 1.406-.462.42-.307.72-.734.87-1.234.272-.914-.027-1.89-.745-2.496l.775-2.597 5.641-2.547c.079-.035.138-.104.162-.187l.362-1.279c.029-.103 0-.213-.076-.288zm-8.969 4.138c-.02.047-.03.098-.024.15l.02.209-1.455-.143c-.08-.008-.16.018-.222.071-.06.053-.097.13-.1.21-.026.768-.54 1.432-1.276 1.651-.945.282-1.944-.257-2.226-1.202-.282-.945.257-1.944 1.203-2.226.74-.221 1.535.056 1.978.69.072.103.203.148.324.112l2.304-.688-.526 1.166zm1.486 2.786c-.037.12.009.252.113.324.633.442.91 1.237.689 1.978-.225.753-.93 1.278-1.714 1.278-.172 0-.345-.025-.512-.075-.945-.282-1.485-1.28-1.203-2.226.22-.737.884-1.25 1.651-1.277.081-.003.157-.039.21-.1.03-.032.05-.07.061-.11l.012-.027.7-1.801c.059-.15-.016-.32-.167-.38-.15-.058-.32.017-.38.168l-.274.707-.105-1.075 3.302-7.318.635-.18-3.018 10.114zm6.67-5.648l-5.054 2.282.443-1.487 4.79-1.43-.18.635z"/>
        <path d="M24.742 29.4c-.193-.193-.45-.3-.725-.3-.273 0-.531.107-.725.3-.193.194-.3.452-.3.726 0 .273.107.53.3.724.194.194.451.3.725.3.274 0 .532-.106.726-.3.4-.4.4-1.05 0-1.45zm-.414 1.036c-.083.083-.193.129-.31.129-.118 0-.228-.046-.311-.129-.083-.083-.129-.193-.129-.31 0-.118.046-.228.129-.311.083-.083.193-.129.31-.129.118 0 .228.046.311.129.172.171.172.45 0 .621zM25.089 25.098c-.151-.058-.321.017-.38.168l-.003.008c-.058.151.017.32.167.38.035.013.07.02.106.02.118 0 .228-.072.273-.188l.004-.009c.058-.15-.017-.32-.167-.379z"/>
    </g>
    <circle cx="179" cy="25" r="15" fill="#01D09E"/>
    <g fill="#fff" clip-path="url(#clip1)">
        <path d="M183.513 20.481c-.008-.038-.029-.073-.059-.099l-3.229-2.695c-.03-.025-.068-.04-.107-.04-.04-.002-.078.01-.11.034l-2.72 2.017-2.674 1.135c-.027.012-.051.03-.07.054-.018.023-.03.051-.035.08l-.97 6.316c-.004.025-.002.05.004.074l.962 3.473c.006.024.018.046.033.065.016.019.035.035.057.046l2.785 1.394c.03.015.064.021.098.018l4.8-.525c.027-.003.053-.012.076-.027.022-.014.041-.034.055-.057l1.532-2.516c.013-.021.022-.045.025-.07l.496-4.092c.002-.02.002-.039-.002-.057l-.947-4.528zm.524 4.226l-2.01-1.1 1.247-2.552.763 3.652zm-3.749-6.51l2.835 2.367-1.34 2.727-1.501-2.828.006-2.266zm3.224 10.688l-5.226-1.313-1.291-1.644 4.692-2.016 1.825 4.973zm-3.459-8.096l1.484 2.805-4.632 1.99.112-2.245 3.036-2.55zm-.117-2.617l-.005 2.112-2.147-.515 2.152-1.597zm-2.544 1.865l2.335.56-2.868 2.412-1.873-1.952 2.406-1.02zm-2.59 1.337l1.864 1.944-.12 2.426-2.609 1.262.865-5.632zm-.881 6.03l2.744-1.327 1.342 1.708-.097 2.448-3.107.358-.882-3.187zm3.57 4.593l-2.211-1.107 2.784-.321 3.319 1.003-3.892.425zm4.689-.552l-3.919-1.184.091-2.31 5.165 1.298-1.337 2.196zm1.525-3.055l-1.59-4.334 1.984 1.085-.394 3.25z"/>
        <path d="M175.107 22.243c-.046-.008-.093.003-.131.03-.038.028-.063.069-.071.115l-.017.105c-.008.046.003.093.03.131.027.038.068.064.114.071l.029.003c.042 0 .082-.015.114-.042.031-.027.053-.064.059-.105l.018-.106c.008-.046-.003-.093-.03-.13-.028-.039-.069-.064-.115-.072zM174.997 22.908c-.046-.008-.093.003-.131.03-.038.028-.063.069-.071.115l-.326 1.96c-.007.046.004.094.031.132.027.038.068.063.114.07.01.002.019.003.029.003.042 0 .082-.015.114-.042.031-.027.052-.064.059-.105l.326-1.96c.004-.023.003-.047-.002-.07-.006-.022-.015-.043-.029-.062-.013-.018-.03-.034-.05-.047-.019-.012-.041-.02-.064-.024z"/>
    </g>
    <path fill="#C6CFFF" d="M54.578 22.748c.775 0 1.383.284 1.823.852.44.568.66 1.348.66 2.34v.132c0 .944-.22 1.688-.66 2.232-.432.544-1.04.816-1.824.816-.752 0-1.34-.3-1.764-.9v2.952h-1.128v-8.304h.84c.056.256.108.536.157.84.456-.64 1.087-.96 1.895-.96zm-.205.9c-.543 0-.944.188-1.2.564-.248.376-.372.948-.372 1.716 0 .784.128 1.364.384 1.74.264.368.66.552 1.188.552.529 0 .92-.188 1.177-.564.256-.376.384-.952.384-1.728 0-.784-.133-1.36-.396-1.728-.256-.368-.644-.552-1.164-.552zm5.46-3.288v1.044h-1.175V20.36h1.175zm-.023 2.508V29H58.68v-6.132h1.129zm4.449-.12c.504 0 .948.108 1.332.324.392.208.696.508.912.9.216.392.324.848.324 1.368v.852h-4.284c.016.648.168 1.148.456 1.5.288.352.716.528 1.284.528.504 0 .876-.148 1.116-.444.24-.296.36-.648.36-1.056h1.068c0 .48-.112.9-.336 1.26-.216.36-.52.64-.912.84-.384.2-.824.3-1.32.3h-.048c-.864 0-1.548-.276-2.052-.828-.496-.56-.744-1.304-.744-2.232v-.24c0-.608.112-1.144.336-1.608.224-.464.544-.824.96-1.08.416-.256.904-.384 1.464-.384h.084zm-.06.9c-.456 0-.828.14-1.116.42-.28.28-.452.696-.516 1.248h3.144v-.144c0-.456-.14-.824-.42-1.104-.272-.28-.636-.42-1.092-.42zm7.028-.9c.568 0 1.012.184 1.332.552.32.36.48.816.48 1.368l-.036.456h-.996v-.264c0-.24-.06-.452-.18-.636s-.272-.324-.456-.42c-.184-.104-.368-.156-.552-.156-.384 0-.684.152-.9.456-.216.304-.324.716-.324 1.236V29h-1.128v-6.132h.804l.168.912c.048-.16.156-.32.324-.48.168-.16.376-.292.624-.396.256-.104.536-.156.84-.156zm5.882 0c.569 0 1.013.184 1.333.552.32.36.48.816.48 1.368l-.037.456h-.996v-.264c0-.24-.06-.452-.18-.636s-.272-.324-.456-.42c-.183-.104-.368-.156-.552-.156-.383 0-.683.152-.9.456-.216.304-.323.716-.323 1.236V29H74.35v-6.132h.803l.168.912c.049-.16.157-.32.325-.48.168-.16.376-.292.623-.396.256-.104.536-.156.84-.156zm5.583 0c.504 0 .948.108 1.332.324.392.208.696.508.912.9.216.392.324.848.324 1.368v.852h-4.284c.016.648.168 1.148.456 1.5.288.352.716.528 1.284.528.504 0 .876-.148 1.116-.444.24-.296.36-.648.36-1.056h1.068c0 .48-.112.9-.336 1.26-.216.36-.52.64-.912.84-.384.2-.824.3-1.32.3h-.048c-.864 0-1.548-.276-2.052-.828-.496-.56-.744-1.304-.744-2.232v-.24c0-.608.112-1.144.336-1.608.224-.464.544-.824.96-1.08.416-.256.904-.384 1.464-.384h.084zm-.06.9c-.456 0-.828.14-1.116.42-.28.28-.452.696-.516 1.248h3.144v-.144c0-.456-.14-.824-.42-1.104-.272-.28-.636-.42-1.092-.42zm8.326 0c.184-.264.432-.48.744-.648.32-.168.664-.252 1.032-.252.784 0 1.392.276 1.824.828.432.544.648 1.284.648 2.22v.132c0 .992-.224 1.772-.672 2.34-.44.568-1.044.852-1.812.852-.912 0-1.6-.364-2.064-1.092l-.396.972h-.432v-8.64h1.128v3.288zm1.548 0c-.536 0-.932.188-1.188.564-.248.368-.372.944-.372 1.728s.128 1.36.384 1.728c.256.368.648.552 1.176.552 1.048 0 1.572-.76 1.572-2.28 0-.784-.132-1.36-.396-1.728-.264-.376-.656-.564-1.176-.564zm6.732-.9c.808 0 1.408.16 1.8.48.4.32.6.784.6 1.392v3.18c0 .144.032.252.096.324.064.064.144.096.24.096.184 0 .368-.056.552-.168v.828c-.272.16-.58.24-.924.24-.344 0-.6-.096-.768-.288-.168-.2-.26-.472-.276-.816-.496.736-1.212 1.104-2.148 1.104-.672 0-1.176-.144-1.512-.432-.328-.296-.492-.76-.492-1.392 0-.496.128-.884.384-1.164.256-.288.68-.496 1.272-.624s1.408-.192 2.448-.192v-.564c0-.408-.12-.692-.36-.852-.24-.168-.588-.252-1.044-.252-.432 0-.768.084-1.008.252-.24.168-.36.404-.36.708v.144h-1.104c-.016-.112-.024-.244-.024-.396 0-.28.112-.544.336-.792.224-.248.528-.444.912-.588.384-.152.808-.228 1.272-.228h.108zm1.272 3.444c-.84 0-1.476.044-1.908.132-.424.08-.708.204-.852.372-.144.168-.216.4-.216.696 0 .552.42.828 1.26.828.296 0 .576-.072.84-.216.264-.152.476-.364.636-.636.16-.272.24-.584.24-.936v-.24zm4.656-3.324h1.428v.9h-1.428v3.66c0 .288.056.496.168.624.112.128.284.192.516.192.208 0 .456-.06.744-.18v.84c-.288.144-.66.216-1.116.216-.472 0-.832-.14-1.08-.42-.24-.28-.36-.724-.36-1.332v-3.6h-.672v-.9h.708l.384-1.956h.708v1.956zm8.158-.12c.488 0 .924.108 1.308.324.392.208.696.504.912.888.216.384.324.824.324 1.32h-1.116c0-.496-.128-.892-.384-1.188-.248-.296-.608-.444-1.08-.444-.496 0-.892.168-1.188.504-.288.328-.432.78-.432 1.356v.648c0 .696.144 1.216.432 1.56.288.336.696.504 1.224.504.488 0 .852-.144 1.092-.432.248-.296.372-.692.372-1.188h1.08c0 .768-.232 1.38-.696 1.836-.456.456-1.068.684-1.836.684h-.096c-.544 0-1.02-.124-1.428-.372-.408-.256-.724-.612-.948-1.068-.216-.456-.324-.988-.324-1.596v-.288c0-.608.112-1.14.336-1.596.224-.464.54-.82.948-1.068.408-.256.876-.384 1.404-.384h.096zm5.279-2.388v1.044h-1.176V20.36h1.176zm-.024 2.508V29h-1.128v-6.132h1.128zm4.329-.12c.456 0 .86.072 1.212.216.36.144.636.344.828.6.2.256.3.54.3.852l-.012.216h-1.116v-.108c0-.584-.452-.876-1.356-.876-.896 0-1.344.268-1.344.804 0 .248.128.432.384.552.256.112.648.22 1.176.324.504.104.916.212 1.236.324.328.112.604.288.828.528.232.24.348.564.348.972 0 .656-.224 1.148-.672 1.476-.448.328-1.092.492-1.932.492h-.18c-.504 0-.944-.076-1.32-.228-.376-.16-.668-.372-.876-.636-.2-.272-.296-.576-.288-.912v-.264h1.116v.12c0 .68.572 1.02 1.716 1.02.336 0 .636-.076.9-.228.272-.152.408-.36.408-.624 0-.224-.076-.4-.228-.528-.144-.128-.324-.224-.54-.288-.216-.064-.516-.128-.9-.192-.496-.096-.896-.192-1.2-.288-.304-.104-.564-.276-.78-.516-.216-.24-.324-.568-.324-.984 0-.568.224-1.012.672-1.332.448-.328 1.06-.492 1.836-.492h.108zm6.53 0c.504 0 .948.108 1.332.324.392.208.696.508.912.9.216.392.324.848.324 1.368v.852h-4.284c.016.648.168 1.148.456 1.5.288.352.716.528 1.284.528.504 0 .876-.148 1.116-.444.24-.296.36-.648.36-1.056h1.068c0 .48-.112.9-.336 1.26-.216.36-.52.64-.912.84-.384.2-.824.3-1.32.3h-.048c-.864 0-1.548-.276-2.052-.828-.496-.56-.744-1.304-.744-2.232v-.24c0-.608.112-1.144.336-1.608.224-.464.544-.824.96-1.08.416-.256.904-.384 1.464-.384h.084zm-.06.9c-.456 0-.828.14-1.116.42-.28.28-.452.696-.516 1.248h3.144v-.144c0-.456-.14-.824-.42-1.104-.272-.28-.636-.42-1.092-.42zm6.68-.9c.808 0 1.408.16 1.8.48.4.32.6.784.6 1.392v3.18c0 .144.032.252.096.324.064.064.144.096.24.096.184 0 .368-.056.552-.168v.828c-.272.16-.58.24-.924.24-.344 0-.6-.096-.768-.288-.168-.2-.26-.472-.276-.816-.496.736-1.212 1.104-2.148 1.104-.672 0-1.176-.144-1.512-.432-.328-.296-.492-.76-.492-1.392 0-.496.128-.884.384-1.164.256-.288.68-.496 1.272-.624s1.408-.192 2.448-.192v-.564c0-.408-.12-.692-.36-.852-.24-.168-.588-.252-1.044-.252-.432 0-.768.084-1.008.252-.24.168-.36.404-.36.708v.144h-1.104c-.016-.112-.024-.244-.024-.396 0-.28.112-.544.336-.792.224-.248.528-.444.912-.588.384-.152.808-.228 1.272-.228h.108zm1.272 3.444c-.84 0-1.476.044-1.908.132-.424.08-.708.204-.852.372-.144.168-.216.4-.216.696 0 .552.42.828 1.26.828.296 0 .576-.072.84-.216.264-.152.476-.364.636-.636.16-.272.24-.584.24-.936v-.24zm8.46 1.608c0 .144.032.252.096.324.064.064.144.096.24.096.176 0 .356-.056.54-.168v.828c-.248.16-.5.24-.756.24-.432 0-.736-.088-.912-.264-.168-.176-.26-.424-.276-.744-.216.32-.496.568-.84.744-.336.176-.724.264-1.164.264-.616 0-1.124-.18-1.524-.54-.392-.368-.588-.896-.588-1.584v-4.128h1.128v3.924c0 .952.432 1.428 1.296 1.428.28 0 .544-.076.792-.228.256-.152.46-.356.612-.612.152-.264.228-.552.228-.864v-3.648h1.128V27.8zm7.202-4.932l-2.148 2.952L153.1 29h-1.344l-1.596-2.244L148.54 29h-1.236l2.256-3.108-2.136-3.024h1.344l1.476 2.088 1.512-2.088h1.236z"/>
    <defs>
        <clipPath id="clip0">
            <path fill="#fff" d="M0 0H15V15H0z" transform="translate(17.5 17.5)"/>
        </clipPath>
        <clipPath id="clip1">
            <path fill="#fff" d="M0 0H15V15H0z" transform="translate(171.5 17.5)"/>
        </clipPath>
    </defs>
</svg>
