<svg xmlns="http://www.w3.org/2000/svg" width="120" height="35" fill="none" viewBox="0 0 120 35">
    <rect width="120" height="35" fill="#0A0F26" rx="17.5"/>
    <path fill="#C6CFFF" d="M37.058 23h-2.432v-5.552c0-.107.005-.224.016-.352-.054.128-.102.235-.144.32l-2.72 5.776-2.752-5.744c-.032-.075-.075-.192-.128-.352V23h-2.432V11.8h2.48l2.608 5.712c.074.17.165.405.272.704.106-.299.197-.533.272-.704l2.688-5.712h2.272V23zm7.016 0v-.608c-.49.533-1.168.8-2.032.8-.907 0-1.648-.23-2.224-.688-.565-.47-.848-1.136-.848-2 0-.843.33-1.488.992-1.936.661-.459 1.435-.688 2.32-.688.768 0 1.365.096 1.792.288v-.448c0-.373-.117-.656-.352-.848-.235-.203-.56-.304-.976-.304-.885 0-1.76.288-2.624.864l-.72-1.776c1.003-.683 2.17-1.024 3.504-1.024 2.315 0 3.472 1.067 3.472 3.2V23h-2.304zm-1.584-1.76c.576 0 1.104-.192 1.584-.576v-.736c-.427-.128-.89-.192-1.392-.192-.96 0-1.44.261-1.44.784 0 .48.416.72 1.248.72zM53.678 23v-4.256c0-.661-.101-1.136-.304-1.424-.192-.299-.523-.448-.992-.448-.502 0-.87.15-1.104.448-.224.299-.336.763-.336 1.392V23h-2.32v-8.176h2.32v.752c.523-.63 1.264-.944 2.224-.944.757 0 1.419.24 1.984.72s.848 1.259.848 2.336V23h-2.32zm8.071.192c-1.163 0-2.09-.379-2.784-1.136-.693-.757-1.04-1.803-1.04-3.136 0-1.312.347-2.352 1.04-3.12.704-.779 1.632-1.168 2.784-1.168 1.856 0 3.05.853 3.584 2.56l-2.208.72c-.267-.704-.715-1.056-1.344-1.056-.437 0-.8.192-1.088.576-.277.384-.416.88-.416 1.488s.139 1.104.416 1.488c.277.373.63.56 1.056.56.672 0 1.13-.395 1.376-1.184l2.224.64c-.544 1.845-1.744 2.768-3.6 2.768zM67.356 23V12.52l2.32-1.072v4.128c.523-.63 1.264-.944 2.224-.944.758 0 1.419.24 1.984.72.566.48.848 1.259.848 2.336V23h-2.32v-4.384c0-.608-.101-1.05-.304-1.328-.192-.277-.522-.416-.992-.416-.96 0-1.44.57-1.44 1.712V23h-2.32zm13.191.192c-1.205 0-2.154-.379-2.848-1.136-.693-.757-1.04-1.808-1.04-3.152 0-1.312.347-2.352 1.04-3.12.704-.768 1.654-1.152 2.848-1.152 1.088 0 1.974.33 2.656.992.683.661 1.024 1.621 1.024 2.88 0 .523-.021.923-.064 1.2h-5.232c.022.512.182.896.48 1.152.299.245.678.368 1.136.368.747 0 1.36-.288 1.84-.864l1.344 1.344c-.821.992-1.882 1.488-3.184 1.488zm-1.6-5.232h3.056c-.117-.907-.634-1.36-1.552-1.36-.416 0-.757.123-1.024.368-.266.235-.426.565-.48.992zM91.222 23v-8.064h-1.648v-1.984c1.142 0 1.84-.384 2.096-1.152h1.984V23h-2.432z"/>
</svg>
