<svg xmlns="http://www.w3.org/2000/svg" width="60" height="60" fill="none" viewBox="0 0 60 60">
    <circle cx="30" cy="30" r="30" fill="#0440A3"/>
    <g fill="#fff" clip-path="url(#clip0)">
        <path d="M21.231 30.628c-.387-.387-.902-.6-1.45-.6-.548 0-1.063.213-1.45.6-.388.387-.6.902-.6 1.45 0 .548.212 1.063.6 1.45.387.388.902.6 1.45.6.548 0 1.063-.212 1.45-.6.387-.387.6-.902.6-1.45 0-.548-.213-1.063-.6-1.45zm-.829 2.072c-.166.166-.386.257-.621.257s-.456-.091-.622-.258c-.166-.165-.257-.386-.257-.62 0-.236.091-.456.257-.622.166-.166.387-.258.622-.258s.455.092.621.258c.166.166.258.386.258.621s-.092.455-.258.622z"/>
        <path d="M44.825 22.82c-.152-.15-.374-.206-.579-.145L34.38 25.62l2.945-9.867c.062-.204.006-.426-.144-.579-.15-.152-.37-.21-.577-.152l-2.558.725c-.166.047-.303.165-.374.322l-5.093 11.283-5.195 1.55c-1.21-1.437-3.163-2.035-4.991-1.489-2.51.75-3.942 3.4-3.193 5.91.614 2.058 2.508 3.392 4.554 3.392.448 0 .904-.065 1.356-.2 1.754-.523 3.03-1.995 3.327-3.764l2.561.252.251 2.56c-1.769.297-3.24 1.573-3.764 3.328-.75 2.51.683 5.16 3.193 5.91.443.132.9.199 1.36.199 1.001 0 2-.328 2.81-.923.84-.616 1.441-1.47 1.74-2.47.545-1.828-.052-3.78-1.49-4.99l1.55-5.196L43.93 26.33c.158-.071.276-.208.323-.375l.724-2.558c.059-.205 0-.426-.152-.576zm-17.937 8.276c-.042.093-.059.196-.049.298l.041.42-2.91-.286c-.161-.016-.322.036-.443.142-.122.107-.194.259-.2.42-.054 1.536-1.08 2.863-2.553 3.303-1.891.564-3.888-.515-4.452-2.405-.564-1.89.515-3.888 2.405-4.452 1.482-.442 3.072.112 3.957 1.379.144.207.406.298.648.226l4.608-1.376-1.052 2.33zm2.971 5.572c-.072.242.019.503.226.648 1.267.885 1.82 2.475 1.378 3.956-.449 1.505-1.858 2.556-3.426 2.556-.346 0-.69-.05-1.025-.15-1.89-.565-2.97-2.562-2.405-4.452.44-1.473 1.767-2.5 3.302-2.553.162-.006.314-.079.42-.2.057-.065.098-.142.122-.223l.023-.052 1.4-3.602c.117-.302-.032-.641-.334-.758-.302-.118-.641.032-.758.334l-.55 1.414-.211-2.15L34.627 16.8l1.27-.36-6.038 20.228zm13.34-11.295l-10.108 4.562.888-2.972 9.58-2.86-.36 1.27z"/>
        <path d="M29.485 38.8c-.387-.386-.902-.6-1.45-.6-.548 0-1.063.213-1.45.6-.388.388-.601.903-.601 1.45 0 .549.213 1.064.6 1.451.388.387.903.6 1.45.6.549 0 1.064-.213 1.45-.6.8-.8.8-2.1 0-2.9zm-.829 2.072c-.166.166-.386.258-.621.258s-.456-.092-.622-.258c-.166-.166-.257-.386-.257-.621s.091-.456.257-.621c.166-.166.387-.258.622-.258s.455.092.621.258c.343.342.343.9 0 1.242zM30.177 30.196c-.302-.117-.641.033-.758.335l-.007.018c-.117.301.033.64.335.758.07.027.14.04.211.04.235 0 .457-.143.547-.375l.007-.018c.117-.301-.033-.64-.335-.758z"/>
    </g>
    <defs>
        <clipPath id="clip0">
            <path fill="#fff" d="M0 0H30V30H0z" transform="translate(15 15)"/>
        </clipPath>
    </defs>
</svg>
