<svg xmlns="http://www.w3.org/2000/svg" width="224" height="100" fill="none" viewBox="0 0 224 100">
    <rect width="224" height="100" fill="#0440A3" rx="20"/>
    <rect width="224" height="96" fill="#0158E6" rx="20"/>
    <path fill="#fff" d="M112.576 41.536l-.312 2.136h-7.704v5.016h6.72v2.136h-6.72V58h-2.352V41.536h10.368zm7.203 3.96c1.008 0 1.896.216 2.664.648.784.416 1.392 1.016 1.824 1.8.432.784.648 1.696.648 2.736v1.704h-8.568c.032 1.296.336 2.296.912 3 .576.704 1.432 1.056 2.568 1.056 1.008 0 1.752-.296 2.232-.888.48-.592.72-1.296.72-2.112h2.136c0 .96-.224 1.8-.672 2.52-.432.72-1.04 1.28-1.824 1.68-.768.4-1.648.6-2.64.6h-.096c-1.728 0-3.096-.552-4.104-1.656-.992-1.12-1.488-2.608-1.488-4.464v-.48c0-1.216.224-2.288.672-3.216.448-.928 1.088-1.648 1.92-2.16.832-.512 1.808-.768 2.928-.768h.168zm-.12 1.8c-.912 0-1.656.28-2.232.84-.56.56-.904 1.392-1.032 2.496h6.288v-.288c0-.912-.28-1.648-.84-2.208-.544-.56-1.272-.84-2.184-.84zm18.784 8.304c0 .288.064.504.192.648.128.128.288.192.48.192.352 0 .712-.112 1.08-.336v1.656c-.496.32-1 .48-1.512.48-.864 0-1.472-.176-1.824-.528-.336-.352-.52-.848-.552-1.488-.432.64-.992 1.136-1.68 1.488-.672.352-1.448.528-2.328.528-1.232 0-2.248-.36-3.048-1.08-.784-.736-1.176-1.792-1.176-3.168v-8.256h2.256v7.848c0 1.904.864 2.856 2.592 2.856.56 0 1.088-.152 1.584-.456.512-.304.92-.712 1.224-1.224.304-.528.456-1.104.456-1.728v-7.296h2.256V55.6zm6.892-14.88v2.088h-2.352V40.72h2.352zm-.048 5.016V58h-2.256V45.736h2.256zm6.33-5.016V58h-2.256V40.72h2.256zm6.422 0V58h-2.256V40.72h2.256zm8.99 4.776c1.008 0 1.896.216 2.664.648.784.416 1.392 1.016 1.824 1.8.432.784.648 1.696.648 2.736v1.704h-8.568c.032 1.296.336 2.296.912 3 .576.704 1.432 1.056 2.568 1.056 1.008 0 1.752-.296 2.232-.888.48-.592.72-1.296.72-2.112h2.136c0 .96-.224 1.8-.672 2.52-.432.72-1.04 1.28-1.824 1.68-.768.4-1.648.6-2.64.6h-.096c-1.728 0-3.096-.552-4.104-1.656-.992-1.12-1.488-2.608-1.488-4.464v-.48c0-1.216.224-2.288.672-3.216.448-.928 1.088-1.648 1.92-2.16.832-.512 1.808-.768 2.928-.768h.168zm-.12 1.8c-.912 0-1.656.28-2.232.84-.56.56-.904 1.392-1.032 2.496h6.288v-.288c0-.912-.28-1.648-.84-2.208-.544-.56-1.272-.84-2.184-.84zm17.036-5.76c-.032.272-.232 4.368-.6 12.288h-2.16V41.536h2.76zm-.168 13.8V58h-2.424v-2.664h2.424z"/>
    <circle cx="55" cy="50" r="30" fill="#0440A3"/>
    <path fill="#fff" d="M68.403 35.404c-.044-.147-.152-.27-.298-.34-.289-.142-.647-.04-.8.227v.002c0 .015-2.997 5.379-12.195 6.314-1.2.118-2.373.407-3.477.856-1.976.793-3.608 2.173-4.637 3.92-.96 1.642-1.358 3.513-1.14 5.367.16 1.352.65 2.653 1.43 3.806-1.633 1.082-6.815 4.824-7.283 8.84-.034.3.202.57.526.6.325.033.616-.185.65-.484.429-3.586 5.291-7.063 6.807-8.07 1.82 2.063 4.546 3.227 7.47 3.417 1.968.117 3.94-.193 5.754-.905 1.97-.763 3.711-1.956 5.072-3.477 3.506-3.92 5.176-10.508 2.12-20.073zM48.326 55.016c-.225-.328-.424-.67-.595-1.025-.358-.749-.59-1.544-.686-2.358-.2-1.633.142-3.284.98-4.734.907-1.538 2.345-2.75 4.085-3.447.995-.4 2.05-.655 3.13-.757 6.072-.603 9.643-3.096 11.486-4.906-1.083 3.29-2.947 6.316-5.457 8.856l-.36-3.34c-.017-.301-.297-.532-.623-.515-.326.017-.576.275-.557.576 0 .014.002.03.004.044l.461 4.294c-2.748 2.572-6.568 5.156-11.868 7.312zm17.04-.238v.003c-1.235 1.389-2.819 2.48-4.613 3.178-1.65.644-3.441.92-5.228.808-2.488-.116-4.823-1.144-6.487-2.855 1.95-.796 3.835-1.72 5.64-2.765l5.193.904c.322.047.625-.157.675-.455.05-.287-.155-.559-.463-.618l-3.99-.697c1.842-1.167 3.557-2.497 5.12-3.971.03-.023.056-.048.08-.075 4.123-3.963 5.878-7.883 6.61-10.295 2.019 7.949.473 13.479-2.536 16.838z"/>
</svg>
