<svg xmlns="http://www.w3.org/2000/svg" width="160" height="220" fill="none" viewBox="0 0 160 220">
    <rect width="160" height="220" fill="#0440A3" rx="20"/>
    <rect width="156" height="212" x="2" y="2" fill="#fff" stroke="#0158E6" stroke-width="4" rx="18"/>
    <path fill="#0440A3" d="M53.605 161.536c.928 0 1.768.208 2.52.624.752.416 1.336.992 1.752 1.728.432.72.648 1.536.648 2.448 0 .912-.216 1.736-.648 2.472-.416.72-1 1.288-1.752 1.704-.752.416-1.592.624-2.52.624h-4.752V178h-2.352v-16.464h7.104zm-4.752 2.136V169h4.536c.752 0 1.4-.256 1.944-.768.56-.528.84-1.16.84-1.896 0-.752-.28-1.384-.84-1.896-.544-.512-1.192-.768-1.944-.768h-4.536zm14.712-2.952v2.088h-2.351v-2.088h2.352zm-.047 5.016V178H61.26v-12.264h2.256zm8.898-.24c1.008 0 1.896.216 2.664.648.784.416 1.392 1.016 1.824 1.8.432.784.648 1.696.648 2.736v1.704h-8.568c.032 1.296.336 2.296.912 3 .576.704 1.432 1.056 2.568 1.056 1.008 0 1.752-.296 2.232-.888.48-.592.72-1.296.72-2.112h2.136c0 .96-.224 1.8-.672 2.52-.432.72-1.04 1.28-1.824 1.68-.768.4-1.648.6-2.64.6h-.096c-1.728 0-3.096-.552-4.104-1.656-.992-1.12-1.488-2.608-1.488-4.464v-.48c0-1.216.224-2.288.672-3.216.448-.928 1.088-1.648 1.92-2.16.832-.512 1.808-.768 2.928-.768h.168zm-.12 1.8c-.912 0-1.656.28-2.232.84-.56.56-.904 1.392-1.032 2.496h6.288v-.288c0-.912-.28-1.648-.84-2.208-.544-.56-1.272-.84-2.184-.84zm14.056-1.8c1.136 0 2.024.368 2.664 1.104.64.72.96 1.632.96 2.736l-.072.912h-1.992v-.528c0-.48-.12-.904-.36-1.272s-.544-.648-.912-.84c-.368-.208-.736-.312-1.104-.312-.768 0-1.368.304-1.8.912-.432.608-.648 1.432-.648 2.472V178h-2.256v-12.264h1.608l.336 1.824c.096-.32.312-.64.648-.96.336-.32.752-.584 1.248-.792.512-.208 1.072-.312 1.68-.312zm11.766 0c1.136 0 2.023.368 2.663 1.104.64.72.96 1.632.96 2.736l-.072.912h-1.992v-.528c0-.48-.12-.904-.36-1.272s-.543-.648-.911-.84c-.369-.208-.737-.312-1.105-.312-.767 0-1.368.304-1.8.912-.431.608-.648 1.432-.648 2.472V178h-2.255v-12.264h1.608l.335 1.824c.097-.32.313-.64.648-.96.337-.32.753-.584 1.249-.792.511-.208 1.072-.312 1.68-.312zm11.165 0c1.008 0 1.896.216 2.664.648.784.416 1.392 1.016 1.824 1.8.432.784.648 1.696.648 2.736v1.704h-8.568c.032 1.296.336 2.296.912 3 .576.704 1.432 1.056 2.568 1.056 1.008 0 1.752-.296 2.232-.888.48-.592.72-1.296.72-2.112h2.136c0 .96-.224 1.8-.672 2.52-.432.72-1.04 1.28-1.824 1.68-.768.4-1.648.6-2.64.6h-.096c-1.728 0-3.096-.552-4.104-1.656-.992-1.12-1.488-2.608-1.488-4.464v-.48c0-1.216.224-2.288.672-3.216.448-.928 1.088-1.648 1.92-2.16.832-.512 1.808-.768 2.928-.768h.168zm-.12 1.8c-.912 0-1.656.28-2.232.84-.56.56-.904 1.392-1.032 2.496h6.288v-.288c0-.912-.28-1.648-.84-2.208-.544-.56-1.272-.84-2.184-.84z"/>
    <circle cx="80" cy="85" r="50" fill="#0440A3"/>
    <path fill="#fff" d="M95.044 69.938c-.027-.13-.097-.246-.198-.33l-10.762-8.984c-.1-.084-.227-.132-.359-.136-.131-.003-.26.037-.365.116l-9.066 6.724-8.913 3.781c-.092.04-.173.101-.234.18-.061.079-.101.172-.117.27l-3.234 21.052c-.013.082-.008.165.014.245l3.205 11.578c.022.079.06.153.112.216.052.063.117.115.19.152l9.283 4.648c.1.051.214.071.326.059l16.002-1.75c.089-.01.175-.04.25-.088.076-.048.14-.113.187-.19l5.106-8.387c.043-.071.07-.151.08-.234l1.656-13.641c.007-.064.005-.128-.009-.19l-3.154-15.091zm1.747 14.087l-6.703-3.667 4.158-8.508 2.545 12.175zm-12.5-21.7l9.45 7.888-4.466 9.09-5.001-9.427.018-7.552zM95.04 97.95l-17.42-4.378-4.301-5.479 15.64-6.72 6.081 16.577zm-11.53-26.986l4.947 9.35-15.438 6.632.371-7.484 10.12-8.498zm-.389-8.725l-.017 7.039-7.158-1.716 7.175-5.323zm-8.481 6.215l7.783 1.866-9.56 8.042-6.24-6.507 8.017-3.4zm-8.631 4.46l6.212 6.48-.402 8.086-8.694 4.206 2.884-18.773zm-2.938 20.1l9.147-4.426 4.471 5.695-.321 8.158-10.356 1.196-2.94-10.623zm11.9 15.31l-7.37-3.691 9.279-1.071 11.065 3.343-12.974 1.419zm15.63-1.841l-13.064-3.947.303-7.7 17.217 4.327-4.457 7.32zm5.082-10.183l-5.3-14.447 6.613 3.618-1.313 10.83z"/>
    <path fill="#fff" d="M67.025 75.81c-.153-.025-.31.011-.437.102-.126.09-.212.227-.237.38l-.059.352c-.025.153.011.31.102.437.09.126.227.211.38.237.032.005.065.008.097.008.139 0 .273-.05.379-.14.105-.09.176-.213.198-.35l.06-.352c.025-.153-.012-.31-.102-.437-.09-.126-.228-.211-.381-.237zM66.657 78.027c-.153-.025-.31.011-.437.102-.126.09-.212.227-.237.38l-1.085 6.537c-.025.153.011.31.102.436.09.127.227.212.38.237.032.006.064.008.097.008.138 0 .272-.05.378-.139.106-.09.176-.214.199-.35l1.085-6.536c.013-.076.01-.154-.007-.229-.017-.075-.05-.146-.094-.208-.045-.063-.102-.116-.167-.157-.066-.04-.138-.068-.214-.08z"/>
</svg>
