<svg xmlns="http://www.w3.org/2000/svg" width="160" height="220" fill="none" viewBox="0 0 160 220">
    <rect width="160" height="220" fill="#AD2B2B" rx="20"/>
    <rect width="156" height="212" x="2" y="2" fill="#fff" stroke="#EB5757" stroke-width="4" rx="18"/>
    <path fill="#EB5757" d="M55.85 161.536l-.313 2.136h-7.704v5.016h6.72v2.136h-6.72V178h-2.352v-16.464H55.85zm7.203 3.96c1.008 0 1.896.216 2.664.648.784.416 1.392 1.016 1.824 1.8.432.784.648 1.696.648 2.736v1.704H59.62c.032 1.296.336 2.296.912 3 .576.704 1.432 1.056 2.568 1.056 1.008 0 1.752-.296 2.232-.888.48-.592.72-1.296.72-2.112h2.136c0 .96-.224 1.8-.672 2.52-.432.72-1.04 1.28-1.824 1.68-.768.4-1.648.6-2.64.6h-.096c-1.728 0-3.096-.552-4.104-1.656-.992-1.12-1.488-2.608-1.488-4.464v-.48c0-1.216.224-2.288.672-3.216.448-.928 1.088-1.648 1.92-2.16.832-.512 1.808-.768 2.928-.768h.168zm-.12 1.8c-.912 0-1.656.28-2.232.84-.56.56-.904 1.392-1.032 2.496h6.288v-.288c0-.912-.28-1.648-.84-2.208-.544-.56-1.272-.84-2.184-.84zm18.784 8.304c0 .288.064.504.192.648.128.128.288.192.48.192.352 0 .712-.112 1.08-.336v1.656c-.496.32-1 .48-1.512.48-.864 0-1.472-.176-1.824-.528-.336-.352-.52-.848-.552-1.488-.432.64-.992 1.136-1.68 1.488-.672.352-1.448.528-2.328.528-1.232 0-2.248-.36-3.048-1.08-.784-.736-1.176-1.792-1.176-3.168v-8.256h2.256v7.848c0 1.904.864 2.856 2.592 2.856.56 0 1.088-.152 1.584-.456.512-.304.92-.712 1.224-1.224.304-.528.456-1.104.456-1.728v-7.296h2.256v9.864zm6.892-14.88v2.088h-2.352v-2.088h2.352zm-.048 5.016V178h-2.257v-12.264h2.257zm6.33-5.016V178h-2.256v-17.28h2.256zm6.422 0V178h-2.256v-17.28h2.256zm8.99 4.776c1.008 0 1.896.216 2.664.648.784.416 1.392 1.016 1.824 1.8.432.784.648 1.696.648 2.736v1.704h-8.568c.032 1.296.336 2.296.912 3 .576.704 1.432 1.056 2.568 1.056 1.008 0 1.752-.296 2.232-.888.48-.592.72-1.296.72-2.112h2.136c0 .96-.224 1.8-.672 2.52-.432.72-1.04 1.28-1.824 1.68-.768.4-1.648.6-2.64.6h-.096c-1.728 0-3.096-.552-4.104-1.656-.992-1.12-1.488-2.608-1.488-4.464v-.48c0-1.216.224-2.288.672-3.216.448-.928 1.088-1.648 1.92-2.16.832-.512 1.808-.768 2.928-.768h.168zm-.12 1.8c-.912 0-1.656.28-2.232.84-.56.56-.904 1.392-1.032 2.496h6.288v-.288c0-.912-.28-1.648-.84-2.208-.544-.56-1.272-.84-2.184-.84z"/>
    <circle cx="80" cy="85" r="50" fill="#EB5757"/>
    <path fill="#fff" d="M102.337 60.674c-.072-.245-.251-.451-.495-.568-.481-.235-1.078-.066-1.332.378l-.002.004c0 .025-4.995 8.965-20.325 10.523-2 .197-3.955.679-5.795 1.428-3.294 1.321-6.014 3.62-7.728 6.533-1.6 2.735-2.263 5.855-1.9 8.945.266 2.253 1.082 4.422 2.385 6.343-2.723 1.804-11.36 8.041-12.14 14.735-.057.499.336.947.877 1 .542.053 1.027-.31 1.084-.809.714-5.976 8.817-11.77 11.344-13.449 3.034 3.438 7.576 5.378 12.45 5.694 3.28.196 6.565-.321 9.59-1.507 3.285-1.272 6.186-3.26 8.453-5.795 5.844-6.533 8.627-17.514 3.534-33.455zM68.877 93.36c-.376-.546-.707-1.117-.992-1.709-.598-1.248-.983-2.573-1.143-3.93-.334-2.722.236-5.473 1.634-7.89 1.51-2.562 3.907-4.584 6.807-5.744 1.658-.666 3.418-1.092 5.218-1.261 10.118-1.005 16.071-5.162 19.143-8.177-1.805 5.483-4.912 10.525-9.095 14.76l-.6-5.568c-.03-.502-.495-.886-1.039-.857-.543.028-.96.457-.929.959.002.024.004.05.008.074l.768 7.156c-4.58 4.287-10.947 8.594-19.78 12.187zm28.401-.397v.005c-2.06 2.315-4.7 4.133-7.69 5.297-2.75 1.073-5.735 1.534-8.714 1.347-4.146-.194-8.038-1.907-10.81-4.76 3.249-1.326 6.39-2.866 9.4-4.608l8.654 1.508c.538.078 1.042-.262 1.126-.758.081-.479-.258-.932-.772-1.031l-6.65-1.161c3.07-1.946 5.928-4.163 8.534-6.619.048-.038.092-.08.13-.125 6.874-6.604 9.798-13.137 11.018-17.158 3.366 13.248.79 22.465-4.226 28.063z"/>
</svg>
