<svg xmlns="http://www.w3.org/2000/svg" width="60" height="60" fill="none" viewBox="0 0 60 60">
    <g fill="#0A0F26" clip-path="url(#clip0)">
        <path d="M12.462 31.256c-.774-.775-1.804-1.201-2.9-1.201-1.096 0-2.126.426-2.9 1.201-.775.775-1.202 1.805-1.202 2.9 0 1.096.427 2.126 1.202 2.9.774.775 1.804 1.202 2.9 1.202 1.096 0 2.126-.427 2.9-1.202.775-.774 1.201-1.804 1.201-2.9 0-1.096-.426-2.125-1.2-2.9zm-1.657 4.143c-.332.332-.774.515-1.243.515-.47 0-.911-.183-1.243-.515-.332-.332-.515-.773-.515-1.243 0-.47.183-.91.515-1.243.332-.332.773-.515 1.243-.515.47 0 .91.183 1.243.515.332.332.515.774.515 1.243 0 .47-.183.911-.515 1.243z"/>
        <path d="M59.65 15.639c-.304-.3-.748-.41-1.158-.288L38.76 21.24l5.89-19.734c.122-.41.012-.854-.289-1.158-.3-.304-.742-.421-1.154-.305l-5.116 1.45c-.332.094-.606.33-.748.645L27.157 24.703l-10.392 3.102c-2.419-2.876-6.325-4.07-9.981-2.979-5.02 1.499-7.884 6.8-6.386 11.82 1.229 4.116 5.016 6.783 9.107 6.783.898 0 1.81-.128 2.713-.397 3.508-1.048 6.062-3.991 6.654-7.53l5.122.503.503 5.122c-3.538.592-6.482 3.146-7.53 6.655C15.47 52.8 18.335 58.103 23.354 59.6c.887.265 1.803.4 2.72.4 2.003 0 4-.657 5.622-1.847 1.679-1.232 2.881-2.94 3.478-4.939 1.091-3.656-.103-7.562-2.979-9.981l3.102-10.392L57.86 22.659c.315-.142.55-.416.645-.749l1.449-5.116c.117-.412 0-.854-.305-1.154zM23.777 32.192c-.085.187-.119.392-.098.596l.082.84-5.821-.572c-.322-.031-.643.072-.887.285-.243.213-.387.517-.399.84-.108 3.071-2.16 5.725-5.107 6.605-3.78 1.128-7.775-1.03-8.903-4.81-1.128-3.781 1.03-7.775 4.81-8.904 2.964-.884 6.144.224 7.914 2.757.289.415.812.596 1.295.452l9.218-2.751-2.104 4.662zm5.941 11.144c-.144.484.038 1.006.452 1.295 2.534 1.77 3.642 4.95 2.757 7.914-.898 3.01-3.716 5.111-6.854 5.111-.69 0-1.38-.101-2.05-.3-3.78-1.13-5.938-5.123-4.81-8.904.88-2.947 3.534-5 6.605-5.107.323-.011.628-.156.84-.4.115-.13.196-.282.243-.444.017-.034.033-.07.047-.105l2.8-7.204c.234-.603-.065-1.282-.668-1.517-.603-.235-1.282.065-1.517.668l-1.1 2.83-.421-4.302L39.254 3.6l2.539-.72-12.075 40.456zM56.4 20.746L36.183 29.87l1.774-5.945 19.162-5.72-.72 2.54z"/>
        <path d="M28.97 47.601c-.775-.774-1.805-1.2-2.9-1.2-1.096 0-2.126.426-2.9 1.2-.776.775-1.202 1.805-1.202 2.9 0 1.096.427 2.126 1.201 2.9.775.775 1.805 1.202 2.9 1.202 1.096 0 2.126-.427 2.9-1.201 1.6-1.6 1.6-4.201 0-5.8zm-1.657 4.144c-.333.332-.774.514-1.243.514-.47 0-.911-.182-1.244-.514-.331-.332-.514-.774-.514-1.243 0-.47.183-.911.514-1.243.332-.332.774-.515 1.244-.515.469 0 .91.183 1.242.515.686.685.686 1.8 0 2.486zM30.355 30.393c-.604-.234-1.283.065-1.517.669l-.014.035c-.234.604.066 1.282.67 1.516.139.054.282.08.423.08.47 0 .913-.284 1.093-.749l.013-.035c.234-.603-.065-1.282-.668-1.516z"/>
    </g>
    <defs>
        <clipPath id="clip0">
            <path fill="#fff" d="M0 0H60V60H0z"/>
        </clipPath>
    </defs>
</svg>
