<svg xmlns="http://www.w3.org/2000/svg" width="60" height="60" fill="none" viewBox="0 0 60 60">
    <circle cx="30" cy="30" r="30" fill="#0440A3"/>
    <path fill="#fff" d="M43.403 15.404c-.044-.147-.152-.27-.298-.34-.289-.142-.646-.04-.8.227v.002c0 .015-2.997 5.379-12.195 6.314-1.2.118-2.373.407-3.477.856-1.976.793-3.608 2.173-4.637 3.92-.96 1.642-1.358 3.513-1.14 5.367.16 1.352.65 2.653 1.43 3.806-1.633 1.082-6.815 4.824-7.283 8.84-.034.3.202.57.526.6.325.033.616-.185.65-.485.429-3.585 5.291-7.062 6.807-8.069 1.82 2.063 4.546 3.227 7.47 3.417 1.968.117 3.94-.193 5.754-.905 1.97-.763 3.711-1.956 5.072-3.477 3.506-3.92 5.176-10.508 2.12-20.073zM23.326 35.016c-.225-.328-.424-.67-.595-1.025-.359-.749-.59-1.544-.686-2.358-.2-1.633.142-3.284.98-4.734.907-1.538 2.345-2.75 4.085-3.447.995-.4 2.05-.655 3.13-.757 6.072-.603 9.643-3.096 11.486-4.906-1.083 3.29-2.947 6.316-5.457 8.856l-.36-3.34c-.017-.302-.297-.532-.623-.515-.326.017-.576.275-.557.576 0 .014.002.03.004.044l.461 4.294c-2.748 2.572-6.568 5.156-11.868 7.312zm17.04-.238v.003c-1.235 1.389-2.819 2.48-4.613 3.178-1.65.644-3.441.92-5.228.808-2.488-.116-4.823-1.144-6.487-2.855 1.95-.796 3.834-1.72 5.64-2.765l5.193.904c.322.047.625-.157.675-.455.05-.287-.155-.559-.463-.618l-3.99-.697c1.842-1.167 3.557-2.497 5.12-3.971.03-.023.056-.048.08-.075 4.123-3.963 5.878-7.883 6.61-10.295 2.019 7.949.473 13.479-2.536 16.838z"/>
</svg>
