<svg xmlns="http://www.w3.org/2000/svg" width="60" height="60" fill="none" viewBox="0 0 60 60">
    <circle cx="30" cy="30" r="30" fill="#0440A3"/>
    <path fill="#fff" d="M39.026 20.963c-.016-.078-.058-.148-.119-.198l-6.457-5.39c-.06-.05-.136-.08-.215-.082-.079-.002-.156.022-.22.07l-5.438 4.034-5.349 2.269c-.055.023-.103.06-.14.107-.037.048-.06.104-.07.163l-1.94 12.63c-.008.05-.005.1.008.148l1.923 6.947c.013.047.036.091.067.129.032.038.07.069.114.091l5.57 2.79c.06.03.128.042.195.034l9.602-1.05c.053-.005.105-.023.15-.052.045-.03.084-.068.112-.114l3.063-5.033c.026-.042.043-.09.05-.14l.992-8.185c.005-.038.003-.076-.005-.114l-1.893-9.054zm1.049 8.452l-4.022-2.2 2.495-5.105 1.527 7.305zm-7.5-13.02l5.67 4.733-2.68 5.454-3-5.656.01-4.531zm6.448 21.376l-10.452-2.627-2.58-3.287 9.383-4.032 3.65 9.946zm-6.917-16.192l2.967 5.61-9.262 3.98.223-4.491 6.072-5.1zm-.234-5.235l-.01 4.223-4.295-1.029 4.305-3.194zm-5.089 3.73l4.67 1.118-5.736 4.826-3.744-3.904 4.81-2.04zm-5.178 2.675l3.727 3.888-.241 4.851-5.217 2.524 1.73-11.263zm-1.763 12.06l5.488-2.655 2.683 3.417-.193 4.895-6.213.717-1.765-6.374zm7.14 9.186L22.56 41.78l5.567-.643 6.64 2.006-7.785.85zm9.378-1.104l-7.839-2.369.182-4.62 10.33 2.596-2.673 4.393zm3.049-6.11l-3.18-8.669 3.968 2.171-.788 6.498z"/>
    <path fill="#fff" d="M22.215 24.486c-.092-.015-.186.007-.262.061-.076.054-.127.136-.142.228l-.035.211c-.016.092.006.186.06.262.055.076.137.127.229.143.019.003.038.004.058.004.083 0 .163-.03.227-.083.063-.054.105-.129.12-.21l.034-.212c.015-.091-.006-.186-.06-.262-.055-.075-.137-.127-.23-.142zM21.994 25.817c-.092-.016-.186.006-.262.06-.076.055-.127.137-.142.229l-.651 3.921c-.015.092.006.187.06.262.055.076.137.127.229.143.02.003.039.004.058.004.083 0 .164-.03.227-.083.063-.054.106-.129.12-.21l.65-3.922c.008-.046.006-.092-.004-.137-.01-.045-.03-.088-.056-.125-.027-.038-.061-.07-.1-.094-.04-.024-.083-.041-.129-.048z"/>
</svg>
