<svg xmlns="http://www.w3.org/2000/svg" width="297" height="100" fill="none" viewBox="0 0 297 100">
    <rect width="297" height="100" fill="#0440A3" rx="20"/>
    <rect width="297" height="86" fill="#0158E6" rx="20"/>
    <path fill="#fff" d="M38.256 36.296c1.28 0 2.4.264 3.36.792s1.696 1.288 2.208 2.28c.528.976.792 2.136.792 3.48h-2.352c0-1.392-.344-2.472-1.032-3.24-.688-.784-1.68-1.176-2.976-1.176-1.44 0-2.536.448-3.288 1.344-.752.88-1.128 2.184-1.128 3.912v2.16c0 1.712.368 3.016 1.104 3.912.736.896 1.824 1.344 3.264 1.344 1.344 0 2.368-.384 3.072-1.152.72-.768 1.08-1.84 1.08-3.216h2.256c0 1.328-.264 2.48-.792 3.456-.512.976-1.248 1.728-2.208 2.256-.96.528-2.08.792-3.36.792-2.128 0-3.792-.648-4.992-1.944-1.184-1.312-1.776-3.128-1.776-5.448v-2.16c0-2.304.592-4.112 1.776-5.424 1.2-1.312 2.864-1.968 4.992-1.968zm14.546 4.2c1.712 0 3.08.528 4.104 1.584s1.536 2.504 1.536 4.344v.888c0 1.84-.504 3.288-1.512 4.344-1.008 1.056-2.384 1.584-4.128 1.584-1.744 0-3.12-.528-4.128-1.584s-1.512-2.504-1.512-4.344v-.888c0-1.84.512-3.288 1.536-4.344 1.024-1.056 2.392-1.584 4.104-1.584zm0 1.8c-1.072 0-1.904.368-2.496 1.104-.592.736-.888 1.816-.888 3.24v.456c0 1.392.288 2.464.864 3.216.592.752 1.432 1.128 2.52 1.128 1.056 0 1.88-.368 2.472-1.104.608-.752.912-1.832.912-3.24v-.456c0-1.392-.296-2.464-.888-3.216-.576-.752-1.408-1.128-2.496-1.128zm21.821-1.8c1.264 0 2.248.368 2.952 1.104.704.736 1.056 1.784 1.056 3.144V53h-2.256v-7.848c0-1.904-.736-2.856-2.208-2.856-.512 0-.992.152-1.44.456-.432.304-.784.72-1.056 1.248-.256.512-.384 1.08-.384 1.704V53h-2.256v-7.848c0-1.904-.736-2.856-2.208-2.856-.512 0-.992.152-1.44.456-.432.304-.784.72-1.056 1.248-.256.512-.384 1.08-.384 1.704V53h-2.256V40.736h1.632l.312 1.8c.928-1.36 2.216-2.04 3.864-2.04 1.616 0 2.736.68 3.36 2.04.544-.768 1.128-1.296 1.752-1.584.624-.304 1.296-.456 2.016-.456zm20.813 0c1.264 0 2.248.368 2.952 1.104.704.736 1.056 1.784 1.056 3.144V53h-2.256v-7.848c0-1.904-.736-2.856-2.208-2.856-.512 0-.992.152-1.44.456-.432.304-.784.72-1.056 1.248-.256.512-.384 1.08-.384 1.704V53h-2.256v-7.848c0-1.904-.736-2.856-2.208-2.856-.512 0-.992.152-1.44.456-.432.304-.784.72-1.056 1.248-.256.512-.384 1.08-.384 1.704V53H82.5V40.736h1.632l.312 1.8c.928-1.36 2.216-2.04 3.864-2.04 1.616 0 2.736.68 3.36 2.04.544-.768 1.128-1.296 1.752-1.584.624-.304 1.296-.456 2.016-.456zm12.796 0c1.008 0 1.896.216 2.664.648.784.416 1.392 1.016 1.824 1.8.432.784.648 1.696.648 2.736v1.704H104.8c.032 1.296.336 2.296.912 3 .576.704 1.432 1.056 2.568 1.056 1.008 0 1.752-.296 2.232-.888.48-.592.72-1.296.72-2.112h2.136c0 .96-.224 1.8-.672 2.52-.432.72-1.04 1.28-1.824 1.68-.768.4-1.648.6-2.64.6h-.096c-1.728 0-3.096-.552-4.104-1.656-.992-1.12-1.488-2.608-1.488-4.464v-.48c0-1.216.224-2.288.672-3.216.448-.928 1.088-1.648 1.92-2.16.832-.512 1.808-.768 2.928-.768h.168zm-.12 1.8c-.912 0-1.656.28-2.232.84-.56.56-.904 1.392-1.032 2.496h6.288v-.288c0-.912-.28-1.648-.84-2.208-.544-.56-1.272-.84-2.184-.84zm14.584-1.8c1.344 0 2.4.36 3.168 1.08.768.72 1.152 1.776 1.152 3.168V53h-2.256v-7.848c0-1.904-.864-2.856-2.592-2.856-.576 0-1.112.152-1.608.456-.496.304-.896.72-1.2 1.248-.304.512-.456 1.08-.456 1.704V53h-2.256V40.736h1.632l.312 1.8c1.024-1.36 2.392-2.04 4.104-2.04zm12.979 0c.976 0 1.848.216 2.616.648.784.416 1.392 1.008 1.824 1.776.432.768.648 1.648.648 2.64h-2.232c0-.992-.256-1.784-.768-2.376-.496-.592-1.216-.888-2.16-.888-.992 0-1.784.336-2.376 1.008-.576.656-.864 1.56-.864 2.712v1.296c0 1.392.288 2.432.864 3.12.576.672 1.392 1.008 2.448 1.008.976 0 1.704-.288 2.184-.864.496-.592.744-1.384.744-2.376h2.16c0 1.536-.464 2.76-1.392 3.672-.912.912-2.136 1.368-3.672 1.368h-.192c-1.088 0-2.04-.248-2.856-.744-.816-.512-1.448-1.224-1.896-2.136-.432-.912-.648-1.976-.648-3.192v-.576c0-1.216.224-2.28.672-3.192.448-.928 1.08-1.64 1.896-2.136.816-.512 1.752-.768 2.808-.768h.192zm13.175 0c1.008 0 1.896.216 2.664.648.784.416 1.392 1.016 1.824 1.8.432.784.648 1.696.648 2.736v1.704h-8.568c.032 1.296.336 2.296.912 3 .576.704 1.432 1.056 2.568 1.056 1.008 0 1.752-.296 2.232-.888.48-.592.72-1.296.72-2.112h2.136c0 .96-.224 1.8-.672 2.52-.432.72-1.04 1.28-1.824 1.68-.768.4-1.648.6-2.64.6h-.096c-1.728 0-3.096-.552-4.104-1.656-.992-1.12-1.488-2.608-1.488-4.464v-.48c0-1.216.224-2.288.672-3.216.448-.928 1.088-1.648 1.92-2.16.832-.512 1.808-.768 2.928-.768h.168zm-.12 1.8c-.912 0-1.656.28-2.232.84-.56.56-.904 1.392-1.033 2.496h6.289v-.288c0-.912-.28-1.648-.84-2.208-.544-.56-1.272-.84-2.184-.84zm14.055-1.8c1.136 0 2.024.368 2.664 1.104.64.72.96 1.632.96 2.736l-.072.912h-1.992v-.528c0-.48-.12-.904-.36-1.272s-.544-.648-.912-.84c-.368-.208-.736-.312-1.104-.312-.768 0-1.368.304-1.8.912-.432.608-.648 1.432-.648 2.472V53h-2.256V40.736h1.608l.336 1.824c.096-.32.312-.64.648-.96.336-.32.752-.584 1.248-.792.512-.208 1.072-.312 1.68-.312zm14.457-4.776V53h-2.256V35.72h2.256zm8.894 4.776c1.616 0 2.816.32 3.6.96.8.64 1.2 1.568 1.2 2.784v6.36c0 .288.064.504.192.648.128.128.288.192.48.192.368 0 .736-.112 1.104-.336v1.656c-.544.32-1.16.48-1.848.48-.688 0-1.2-.192-1.536-.576-.336-.4-.52-.944-.552-1.632-.992 1.472-2.424 2.208-4.296 2.208-1.344 0-2.352-.288-3.024-.864-.656-.592-.984-1.52-.984-2.784 0-.992.256-1.768.768-2.328.512-.576 1.36-.992 2.544-1.248s2.816-.384 4.896-.384v-1.128c0-.816-.24-1.384-.72-1.704-.48-.336-1.176-.504-2.088-.504-.864 0-1.536.168-2.016.504-.48.336-.72.808-.72 1.416v.288h-2.208c-.032-.224-.048-.488-.048-.792 0-.56.224-1.088.672-1.584.448-.496 1.056-.888 1.824-1.176.768-.304 1.616-.456 2.544-.456h.216zm2.544 6.888c-1.68 0-2.952.088-3.816.264-.848.16-1.416.408-1.704.744-.288.336-.432.8-.432 1.392 0 1.104.84 1.656 2.52 1.656.592 0 1.152-.144 1.68-.432.528-.304.952-.728 1.272-1.272.32-.544.48-1.168.48-1.872v-.48zm18.315-6.888c1.552 0 2.768.568 3.648 1.704.88 1.136 1.32 2.696 1.32 4.68v.264c0 1.888-.44 3.376-1.32 4.464-.864 1.088-2.08 1.632-3.648 1.632-1.504 0-2.68-.6-3.528-1.8v5.904h-2.256V40.736h1.68c.112.512.216 1.072.312 1.68.912-1.28 2.176-1.92 3.792-1.92zm-.408 1.8c-1.088 0-1.888.376-2.4 1.128-.496.752-.744 1.896-.744 3.432 0 1.568.256 2.728.768 3.48.528.736 1.32 1.104 2.376 1.104 1.056 0 1.84-.376 2.352-1.128.512-.752.768-1.904.768-3.456 0-1.568-.264-2.72-.792-3.456-.512-.736-1.288-1.104-2.328-1.104zm13.44-1.8c1.616 0 2.816.32 3.6.96.8.64 1.2 1.568 1.2 2.784v6.36c0 .288.064.504.192.648.128.128.288.192.48.192.368 0 .736-.112 1.104-.336v1.656c-.544.32-1.16.48-1.848.48-.688 0-1.2-.192-1.536-.576-.336-.4-.52-.944-.552-1.632-.992 1.472-2.424 2.208-4.296 2.208-1.344 0-2.352-.288-3.024-.864-.656-.592-.984-1.52-.984-2.784 0-.992.256-1.768.768-2.328.512-.576 1.36-.992 2.544-1.248s2.816-.384 4.896-.384v-1.128c0-.816-.24-1.384-.72-1.704-.48-.336-1.176-.504-2.088-.504-.864 0-1.536.168-2.016.504-.48.336-.72.808-.72 1.416v.288h-2.208c-.032-.224-.048-.488-.048-.792 0-.56.224-1.088.672-1.584.448-.496 1.056-.888 1.824-1.176.768-.304 1.616-.456 2.544-.456h.216zm2.544 6.888c-1.68 0-2.952.088-3.816.264-.848.16-1.416.408-1.704.744-.288.336-.432.8-.432 1.392 0 1.104.84 1.656 2.52 1.656.592 0 1.152-.144 1.68-.432.528-.304.952-.728 1.272-1.272.32-.544.48-1.168.48-1.872v-.48zm12.191-6.888c1.136 0 2.024.368 2.664 1.104.64.72.96 1.632.96 2.736l-.072.912h-1.992v-.528c0-.48-.12-.904-.36-1.272s-.544-.648-.912-.84c-.368-.208-.736-.312-1.104-.312-.768 0-1.368.304-1.8.912-.432.608-.648 1.432-.648 2.472V53h-2.256V40.736h1.608l.336 1.824c.096-.32.312-.64.648-.96.336-.32.752-.584 1.248-.792.512-.208 1.072-.312 1.68-.312zm8.886.24h2.856v1.8h-2.856v7.32c0 .576.112.992.336 1.248.224.256.568.384 1.032.384.416 0 .912-.12 1.488-.36v1.68c-.576.288-1.32.432-2.232.432-.944 0-1.664-.28-2.16-.84-.48-.56-.72-1.448-.72-2.664v-7.2h-1.344v-1.8h1.416l.768-3.912h1.416v3.912zm7.961-5.016v2.088h-2.352V35.72h2.352zm-.048 5.016V53h-2.256V40.736h2.256zm8.898-.24c1.008 0 1.896.216 2.664.648.784.416 1.392 1.016 1.824 1.8.432.784.648 1.696.648 2.736v1.704h-8.568c.032 1.296.336 2.296.912 3 .576.704 1.432 1.056 2.568 1.056 1.008 0 1.752-.296 2.232-.888.48-.592.72-1.296.72-2.112h2.136c0 .96-.224 1.8-.672 2.52-.432.72-1.04 1.28-1.824 1.68-.768.4-1.648.6-2.64.6h-.096c-1.728 0-3.096-.552-4.104-1.656-.992-1.12-1.488-2.608-1.488-4.464v-.48c0-1.216.224-2.288.672-3.216.448-.928 1.088-1.648 1.92-2.16.832-.512 1.808-.768 2.928-.768h.168zm-.12 1.8c-.912 0-1.656.28-2.232.84-.56.56-.904 1.392-1.032 2.496h6.288v-.288c0-.912-.28-1.648-.84-2.208-.544-.56-1.272-.84-2.184-.84z"/>
</svg>
