<svg xmlns="http://www.w3.org/2000/svg" width="60" height="60" fill="none" viewBox="0 0 60 60">
    <path fill="#0A0F26" d="M56.805.808c-.087-.293-.302-.54-.595-.681-.577-.282-1.293-.079-1.599.454l-.002.004c0 .03-5.993 10.76-24.39 12.629-2.4.236-4.745.814-6.953 1.712-3.953 1.586-7.217 4.346-9.274 7.84-1.92 3.283-2.716 7.026-2.28 10.735.32 2.704 1.298 5.305 2.862 7.61C11.306 43.278.94 50.762.007 58.795c-.069.6.402 1.137 1.052 1.2.65.063 1.232-.372 1.3-.971.856-7.17 10.581-14.124 13.613-16.138 3.64 4.125 9.091 6.453 14.94 6.833 3.937.234 7.878-.386 11.509-1.81 3.94-1.526 7.422-3.912 10.143-6.953 7.012-7.84 10.352-21.017 4.241-40.147zM16.652 40.032c-.45-.655-.848-1.34-1.19-2.05-.717-1.498-1.18-3.088-1.372-4.716-.4-3.267.284-6.568 1.96-9.468 1.814-3.075 4.69-5.502 8.17-6.894 1.99-.8 4.102-1.31 6.26-1.513 12.143-1.206 19.286-6.194 22.972-9.812-2.165 6.58-5.894 12.63-10.914 17.712l-.718-6.682c-.037-.602-.596-1.063-1.248-1.029-.652.034-1.151.55-1.114 1.151.001.03.004.06.009.089l.921 8.588c-5.496 5.144-13.136 10.312-23.736 14.624zm34.082-.476v.006c-2.473 2.777-5.64 4.959-9.228 6.356-3.3 1.287-6.882 1.84-10.457 1.616-4.976-.232-9.645-2.288-12.972-5.71 3.898-1.593 7.668-3.44 11.28-5.53l10.384 1.808c.646.094 1.25-.313 1.352-.91.097-.574-.31-1.118-.927-1.237l-7.98-1.393c3.685-2.335 7.115-4.995 10.241-7.942.058-.046.11-.096.157-.15 8.248-7.925 11.757-15.765 13.221-20.59 4.039 15.897.948 26.958-5.071 33.676z"/>
</svg>
