<svg xmlns="http://www.w3.org/2000/svg" width="60" height="60" fill="none" viewBox="0 0 60 60">
    <path fill="#0A0F26" d="M48.053 11.925c-.033-.155-.117-.294-.238-.396L34.9.75c-.121-.1-.273-.158-.43-.163-.158-.004-.313.044-.44.138l-10.878 8.07-10.696 4.537c-.11.047-.207.121-.28.216-.074.094-.122.206-.14.325L8.155 39.133c-.015.098-.01.199.017.295l3.846 13.893c.026.095.072.183.135.259.062.076.14.138.228.182L23.52 59.34c.12.06.256.085.39.07l19.203-2.099c.107-.012.21-.048.301-.106.091-.057.167-.135.223-.227l6.128-10.065c.052-.086.085-.182.097-.281l1.986-16.37c.009-.076.006-.153-.01-.228l-3.785-18.109zM50.15 28.83l-8.044-4.4 4.99-10.209 3.054 14.61zm-15-26.04l11.34 9.466-5.36 10.91-6.001-11.313.021-9.063zm12.897 42.752l-20.904-5.254-5.162-6.574 18.768-8.064 7.298 19.892zM34.212 13.158l5.935 11.219-18.526 7.96.446-8.98 12.145-10.2zm-.468-10.47l-.02 8.447-8.59-2.059 8.61-6.387zm-10.178 7.459l9.34 2.238-11.473 9.65-7.488-7.808 9.621-4.08zm-10.357 5.35l7.455 7.776-.482 9.704-10.434 5.047 3.461-22.527zm-3.525 24.12l10.976-5.31 5.366 6.834-.386 9.79-12.427 1.435-3.529-12.748zm14.28 18.372l-8.843-4.428 11.134-1.285 13.278 4.012-15.57 1.701zm18.755-2.208l-15.676-4.736.364-9.241 20.66 5.192-5.348 8.785zm6.099-12.22l-6.36-17.336 7.936 4.341-1.576 12.996z"/>
    <path fill="#0A0F26" d="M14.43 18.973c-.184-.03-.373.013-.524.121-.152.109-.254.273-.285.457l-.07.422c-.03.184.013.372.121.524.109.152.273.254.457.285.038.006.077.01.116.01.167-.001.328-.06.454-.168.127-.108.212-.257.239-.42l.07-.423c.03-.184-.013-.372-.122-.524-.108-.152-.272-.254-.456-.284zM13.988 21.633c-.184-.03-.372.013-.524.122-.152.108-.254.272-.285.456l-1.302 7.843c-.03.184.014.373.122.524.109.152.273.255.457.285.038.006.077.01.116.01.166 0 .327-.06.454-.167.127-.108.211-.257.239-.421l1.302-7.843c.015-.091.012-.184-.009-.274-.02-.09-.06-.175-.113-.25-.054-.076-.122-.14-.2-.188-.079-.05-.166-.082-.257-.097z"/>
</svg>
